<?xml version="1.0" encoding="iso-8859-1"?>
<!-- Generator: Adobe Illustrator 19.0.0, SVG Export Plug-In . SVG Version: 6.00 Build 0)  -->
<svg xmlns="http://www.w3.org/2000/svg" xmlns:xlink="http://www.w3.org/1999/xlink" version="1.1" id="Capa_1" x="0px" y="0px" viewBox="0 0 512.001 512.001" style="enable-background:new 0 0 512.001 512.001;" xml:space="preserve" width="512px" height="512px">
<g>
	<g>
		<path d="M499.954,305.294l-41.946-83.895C455.827,83.246,329.899-23.19,188.041,4.37C99.25,21.62,28.508,93.039,12.011,182.086    c-11.614,62.687,2.33,125.035,39.264,175.562c30.15,41.247,46.757,90.737,46.757,139.353c0,8.284,6.716,15,15,15h210.003    c8.284,0,15-6.716,15-15v-39.2c0-4.301,3.499-7.8,7.8-7.8h67.201c24.813,0,45.001-20.187,45.001-45.001v-45h8.108    c13.197,0,25.217-6.702,32.155-17.927C505.237,330.846,505.855,317.097,499.954,305.294z M472.78,326.299    c-0.688,1.112-2.71,3.699-6.635,3.699h-23.109c-8.284,0-15,6.716-15,15v60.001c0,8.271-6.729,15-15,15h-67.201    c-20.843,0-37.8,16.957-37.8,37.8v24.2H127.572c-3.06-49.999-21.279-99.924-52.079-142.056    c-32.009-43.79-44.08-97.91-33.984-152.393C55.78,110.519,116.967,48.739,193.762,33.819    c122.77-23.852,234.274,68.378,234.274,191.177c0,2.329,0.542,4.625,1.583,6.708l43.501,87.004    C474.877,322.221,473.468,325.187,472.78,326.299z" fill="#2196f3"/>
	</g>
</g>
<g>
	<g>
		<path d="M233.033,89.995c-74.44,0-135.002,60.562-135.002,135.002c0,74.524,60.668,135.002,135.002,135.002    c74.379,0,135.002-60.528,135.002-135.002C368.035,150.557,307.474,89.995,233.033,89.995z M218.033,328.922    c-22.903-3.291-43.444-13.994-59.098-29.601l59.098-44.324V328.922z M140.91,275.338c-8.205-14.956-12.878-32.112-12.878-50.342    c0-52.806,39.184-96.624,90.001-103.925v96.425h0L140.91,275.338z M248.033,328.922v-73.925l59.098,44.324    C291.477,314.927,270.937,325.632,248.033,328.922z M325.156,275.339l-77.123-57.843v-96.425    c50.817,7.301,90.001,51.12,90.001,103.925C338.034,243.226,333.362,260.383,325.156,275.339z" fill="#2196f3"/>
	</g>
</g>
<g>
</g>
<g>
</g>
<g>
</g>
<g>
</g>
<g>
</g>
<g>
</g>
<g>
</g>
<g>
</g>
<g>
</g>
<g>
</g>
<g>
</g>
<g>
</g>
<g>
</g>
<g>
</g>
<g>
</g>
</svg>
